# xmcd CD database file
#
# Track frame offsets:
#	150
#	19055
#	31223
#	44201
#	57556
#	72480
#	88354
#	102310
#	121676
#	134768
#	148165
#
# Disc length: 2161 seconds
#
# Revision: 0
# Processed by: cddbd v1.5.2PL0 Copyright (c) Steve Scherf et al.
# Submitted via: CDex 1.51
#
DISCID=ae086f0b
DTITLE=The Checks - Hunting Whales
DYEAR=2007
DGENRE=Blues
TTITLE0=Mercedes Children
TTITLE1=Take Me There
TTITLE2=What You Heard
TTITLE3=Tired From Sleeping
TTITLE4=Where Has She Gone
TTITLE5=Terribly Easy
TTITLE6=Honest Man
TTITLE7=See Me Peter
TTITLE8=Don't Wait
TTITLE9=Hunting Whales
TTITLE10=The Memory Walking
EXTD=YEAR: 2007
EXTT0=
EXTT1=
EXTT2=
EXTT3=
EXTT4=
EXTT5=
EXTT6=
EXTT7=
EXTT8=
EXTT9=
EXTT10=
PLAYORDER=
